<svg xmlns="http://www.w3.org/2000/svg" viewBox="0 0 1200 400">
  <defs>
    <linearGradient id="bg" x1="0%" y1="0%" x2="100%" y2="100%">
      <stop offset="0%" style="stop-color:#0a1628;stop-opacity:1" />
      <stop offset="50%" style="stop-color:#1a2a4a;stop-opacity:1" />
      <stop offset="100%" style="stop-color:#0d2137;stop-opacity:1" />
    </linearGradient>
    <linearGradient id="court" x1="0%" y1="0%" x2="100%" y2="100%">
      <stop offset="0%" style="stop-color:#1565C0;stop-opacity:1" />
      <stop offset="100%" style="stop-color:#1976D2;stop-opacity:1" />
    </linearGradient>
    <linearGradient id="accent" x1="0%" y1="0%" x2="100%" y2="0%">
      <stop offset="0%" style="stop-color:#4CAF50;stop-opacity:1" />
      <stop offset="100%" style="stop-color:#66BB6A;stop-opacity:1" />
    </linearGradient>
    <filter id="glow"><feGaussianBlur stdDeviation="3" result="blur"/><feComposite in="SourceGraphic" in2="blur" operator="over"/></filter>
    <filter id="shadow"><feDropShadow dx="0" dy="4" stdDeviation="8" flood-color="#000" flood-opacity="0.3"/></filter>
  </defs>
  <rect width="1200" height="400" fill="url(#bg)"/>
  <g opacity="0.06" stroke="#fff" stroke-width="0.5" fill="none">
    <line x1="0" y1="0" x2="0" y2="400"/><line x1="40" y1="0" x2="40" y2="400"/><line x1="80" y1="0" x2="80" y2="400"/><line x1="120" y1="0" x2="120" y2="400"/><line x1="160" y1="0" x2="160" y2="400"/><line x1="200" y1="0" x2="200" y2="400"/><line x1="240" y1="0" x2="240" y2="400"/><line x1="280" y1="0" x2="280" y2="400"/><line x1="320" y1="0" x2="320" y2="400"/><line x1="360" y1="0" x2="360" y2="400"/><line x1="400" y1="0" x2="400" y2="400"/><line x1="440" y1="0" x2="440" y2="400"/><line x1="480" y1="0" x2="480" y2="400"/><line x1="520" y1="0" x2="520" y2="400"/><line x1="560" y1="0" x2="560" y2="400"/><line x1="600" y1="0" x2="600" y2="400"/><line x1="640" y1="0" x2="640" y2="400"/><line x1="680" y1="0" x2="680" y2="400"/><line x1="720" y1="0" x2="720" y2="400"/><line x1="760" y1="0" x2="760" y2="400"/><line x1="800" y1="0" x2="800" y2="400"/><line x1="840" y1="0" x2="840" y2="400"/><line x1="880" y1="0" x2="880" y2="400"/><line x1="920" y1="0" x2="920" y2="400"/><line x1="960" y1="0" x2="960" y2="400"/><line x1="1000" y1="0" x2="1000" y2="400"/><line x1="1040" y1="0" x2="1040" y2="400"/><line x1="1080" y1="0" x2="1080" y2="400"/><line x1="1120" y1="0" x2="1120" y2="400"/><line x1="1160" y1="0" x2="1160" y2="400"/>
    <line x1="0" y1="40" x2="1200" y2="40"/><line x1="0" y1="80" x2="1200" y2="80"/><line x1="0" y1="120" x2="1200" y2="120"/><line x1="0" y1="160" x2="1200" y2="160"/><line x1="0" y1="200" x2="1200" y2="200"/><line x1="0" y1="240" x2="1200" y2="240"/><line x1="0" y1="280" x2="1200" y2="280"/><line x1="0" y1="320" x2="1200" y2="320"/><line x1="0" y1="360" x2="1200" y2="360"/>
  </g>
  <g transform="translate(850, 200)" filter="url(#shadow)">
    <polygon points="0,-60 160,0 0,60 -160,0" fill="url(#court)" opacity="0.9"/>
    <polygon points="0,-90 200,0 0,90 -200,0" fill="url(#accent)" opacity="0.3"/>
    <polygon points="0,-90 200,0 0,90 -200,0" fill="none" stroke="#4CAF50" stroke-width="1.5" opacity="0.6"/>
    <line x1="-120" y1="0" x2="120" y2="0" stroke="#fff" stroke-width="1.5" opacity="0.8"/>
    <line x1="0" y1="-45" x2="0" y2="45" stroke="#fff" stroke-width="1" opacity="0.6"/>
    <line x1="-60" y1="-22" x2="-60" y2="22" stroke="#fff" stroke-width="1" opacity="0.6"/>
    <line x1="60" y1="-22" x2="60" y2="22" stroke="#fff" stroke-width="1" opacity="0.6"/>
    <line x1="0" y1="-50" x2="0" y2="-80" stroke="#fff" stroke-width="1.5" opacity="0.5"/>
    <rect x="-1" y="-80" width="2" height="30" fill="#888" opacity="0.4"/>
    <line x1="0" y1="-55" x2="0" y2="50" stroke="#ddd" stroke-width="0.5" stroke-dasharray="2,2" opacity="0.3"/>
    <g stroke="#999" stroke-width="1" opacity="0.4"><line x1="-200" y1="0" x2="-200" y2="-40"/><line x1="200" y1="0" x2="200" y2="-40"/><line x1="0" y1="-90" x2="0" y2="-130"/><line x1="0" y1="90" x2="0" y2="50"/></g>
    <g opacity="0.6"><line x1="-210" y1="5" x2="-210" y2="-65" stroke="#aaa" stroke-width="2"/><circle cx="-210" cy="-65" r="4" fill="#FFD54F" opacity="0.8"/><line x1="210" y1="5" x2="210" y2="-65" stroke="#aaa" stroke-width="2"/><circle cx="210" cy="-65" r="4" fill="#FFD54F" opacity="0.8"/></g>
  </g>
  <text x="80" y="120" font-family="system-ui,sans-serif" font-size="52" font-weight="800" fill="#fff" letter-spacing="-1">PickleBugs 3D</text>
  <text x="80" y="170" font-family="system-ui,sans-serif" font-size="36" font-weight="300" fill="#90CAF9" letter-spacing="0.5">Court Renderer</text>
  <text x="80" y="220" font-family="system-ui,sans-serif" font-size="16" fill="#8899bb">Interactive 3D pickleball court visualization &amp; configurator</text>
  <g transform="translate(80,260)">
    <rect x="0" y="0" width="90" height="30" rx="15" fill="#1565C0" opacity="0.3"/><text x="45" y="20" font-family="system-ui" font-size="12" fill="#90CAF9" text-anchor="middle">Three.js</text>
    <rect x="100" y="0" width="100" height="30" rx="15" fill="#4CAF50" opacity="0.3"/><text x="150" y="20" font-family="system-ui" font-size="12" fill="#A5D6A7" text-anchor="middle">No Backend</text>
    <rect x="210" y="0" width="120" height="30" rx="15" fill="#FF9800" opacity="0.3"/><text x="270" y="20" font-family="system-ui" font-size="12" fill="#FFCC80" text-anchor="middle">JPEG Export</text>
    <rect x="340" y="0" width="130" height="30" rx="15" fill="#9C27B0" opacity="0.3"/><text x="405" y="20" font-family="system-ui" font-size="12" fill="#CE93D8" text-anchor="middle">Single HTML File</text>
  </g>
  <line x1="80" y1="310" x2="500" y2="310" stroke="#fff" stroke-width="0.5" opacity="0.1"/>
  <text x="80" y="345" font-family="system-ui" font-size="14" fill="#556688">Built for pickleball court builders across India</text>
  <text x="80" y="370" font-family="system-ui" font-size="12" fill="#445577">Configure courts • Choose venues • Export renders • Send with quotations</text>
</svg>
