<svg xmlns="http://www.w3.org/2000/svg" viewBox="0 0 800 500"><defs><linearGradient id="bg1" x1="0%" y1="0%" x2="100%" y2="100%"><stop offset="0%" style="stop-color:#0f1923;stop-opacity:1" /><stop offset="100%" style="stop-color:#1a2d42;stop-opacity:1" /></linearGradient><filter id="s1"><feDropShadow dx="0" dy="2" stdDeviation="4" flood-color="#000" flood-opacity="0.4"/></filter></defs><rect width="800" height="500" fill="url(#bg1)" rx="12"/><rect x="20" y="20" width="220" height="460" rx="8" fill="#1a2533" filter="url(#s1)"/><text x="40" y="55" font-family="system-ui" font-size="14" font-weight="700" fill="#fff">Court Configuration</text><line x1="30" y1="65" x2="230" y2="65" stroke="#2a3a4d"/><text x="40" y="90" font-family="system-ui" font-size="11" fill="#8899aa">Court Length</text><rect x="40" y="96" width="180" height="26" rx="4" fill="#0d1821" stroke="#2a3a4d"/><text x="50" y="114" font-family="monospace" font-size="12" fill="#4CAF50">44 ft</text><text x="40" y="140" font-family="system-ui" font-size="11" fill="#8899aa">Court Width</text><rect x="40" y="146" width="180" height="26" rx="4" fill="#0d1821" stroke="#2a3a4d"/><text x="50" y="164" font-family="monospace" font-size="12" fill="#4CAF50">20 ft</text><text x="40" y="190" font-family="system-ui" font-size="11" fill="#8899aa">Courts</text><rect x="40" y="196" width="180" height="26" rx="4" fill="#0d1821" stroke="#2a3a4d"/><text x="50" y="214" font-family="monospace" font-size="12" fill="#4CAF50">2</text><text x="40" y="245" font-family="system-ui" font-size="11" fill="#8899aa">Venue</text><rect x="40" y="251" width="180" height="26" rx="4" fill="#0d1821" stroke="#2a3a4d"/><text x="50" y="269" font-family="monospace" font-size="12" fill="#90CAF9">School Campus</text><g transform="translate(40,295)"><text font-family="system-ui" font-size="11" fill="#8899aa" y="0">Accessories</text><g transform="translate(0,12)"><text font-family="system-ui" font-size="11" fill="#ccd" y="12">Chain-link Fence</text><rect x="145" y="1" width="35" height="18" rx="9" fill="#4CAF50"/><circle cx="168" cy="10" r="7" fill="#fff"/></g><g transform="translate(0,36)"><text font-family="system-ui" font-size="11" fill="#ccd" y="12">LED Lighting</text><rect x="145" y="1" width="35" height="18" rx="9" fill="#4CAF50"/><circle cx="168" cy="10" r="7" fill="#fff"/></g><g transform="translate(0,60)"><text font-family="system-ui" font-size="11" fill="#ccd" y="12">Drainage</text><rect x="145" y="1" width="35" height="18" rx="9" fill="#2a3a4d"/><circle cx="157" cy="10" r="7" fill="#667"/></g></g><g transform="translate(40,410)"><text font-family="system-ui" font-size="11" fill="#8899aa" y="0">Colors</text><circle cx="10" cy="22" r="10" fill="#1565C0" stroke="#fff" stroke-width="2"/><circle cx="35" cy="22" r="10" fill="#C62828"/><circle cx="60" cy="22" r="10" fill="#2E7D32"/><circle cx="85" cy="22" r="10" fill="#E65100"/><circle cx="110" cy="22" r="10" fill="#4A148C"/></g><rect x="260" y="20" width="520" height="380" rx="8" fill="#0a1018" filter="url(#s1)"/><g transform="translate(520,200)"><ellipse cx="0" cy="20" rx="220" ry="110" fill="#2d5a27" opacity="0.3"/><polygon points="0,-100 200,0 0,100 -200,0" fill="#4CAF50" opacity="0.4"/><polygon points="0,-70 140,0 0,70 -140,0" fill="#1565C0" opacity="0.9"/><polygon points="0,-70 140,0 0,70 -140,0" fill="none" stroke="#fff" stroke-width="1.5" opacity="0.7"/><line x1="-105" y1="0" x2="105" y2="0" stroke="#fff" stroke-width="1.2" opacity="0.8"/><line x1="-210" y1="5" x2="-210" y2="-75" stroke="#aaa" stroke-width="2.5"/><circle cx="-210" cy="-75" r="5" fill="#FFD54F" opacity="0.9"/><line x1="210" y1="5" x2="210" y2="-75" stroke="#aaa" stroke-width="2.5"/><circle cx="210" cy="-75" r="5" fill="#FFD54F" opacity="0.9"/><g opacity="0.6"><line x1="-140" y1="115" x2="140" y2="115" stroke="#fff"/><text x="0" y="130" font-family="monospace" font-size="10" fill="#aaa" text-anchor="middle">44ft</text></g></g><rect x="260" y="420" width="520" height="50" rx="8" fill="#1a2533" filter="url(#s1)"/><rect x="580" y="430" width="180" height="30" rx="6" fill="#4CAF50"/><text x="670" y="450" font-family="system-ui" font-size="13" font-weight="600" fill="#fff" text-anchor="middle">Export Images (5 Angles)</text><rect x="280" y="430" width="130" height="30" rx="6" fill="#1565C0" opacity="0.4" stroke="#1565C0"/><text x="345" y="450" font-family="system-ui" font-size="12" fill="#90CAF9" text-anchor="middle">Reset Defaults</text></svg>
